<?xml version="1.0" standalone="no"?>
<svg height="280" width="280" viewBox="0 0 280 280" fill="none" xmlns="http://www.w3.org/2000/svg"><mask id="a" maskUnits="userSpaceOnUse" x="0" y="0" width="280" height="280"><circle cx="140" cy="140" r="140" fill="white"/></mask><g mask="url(#a)"><rect width="100%" height="100%" fill="#07f82f"/><g id="base" transform="translate(40,36)"><path d="M100 0C69.072 0 44 25.072 44 56v6.166c-5.675.952-10 5.888-10 11.834v14c0 6.052 4.48 11.058 10.305 11.881 2.067 19.806 14.458 36.541 31.695 44.73V163h-4c-39.764 0-72 32.236-72 72v9h200v-9c0-39.764-32.236-72-72-72h-4v-18.389c17.237-8.189 29.628-24.924 31.695-44.73C161.52 99.058 166 94.052 166 88V74c0-5.946-4.325-10.882-10-11.834V56c0-30.928-25.072-56-56-56z" fill="#d36d29"/><path d="M76 144.611v8A55.79 55.79 0 00100 158a55.789 55.789 0 0024-5.389v-8A55.789 55.789 0 01100 150a55.79 55.79 0 01-24-5.389z" fill="#000" fill-opacity=".1"/></g><g id="clothes" transform="translate(8, 170)"><g><path d="M132.5 51.828c18.502 0 33.5-9.617 33.5-21.48 0-.353-.013-.704-.04-1.053 36.976 3.03 66.04 34 66.04 71.757V110H32v-8.948c0-38.1 29.592-69.287 67.045-71.833-.03.374-.045.75-.045 1.129 0 11.863 14.998 21.48 33.5 21.48z" fill="#E6E6E6"/><path d="M132.5 58.761c21.89 0 39.635-12.05 39.635-26.913 0-.603-.029-1.2-.086-1.793a72.056 72.056 0 00-6.089-.76c.027.349.04.7.04 1.053 0 11.863-14.998 21.48-33.5 21.48-18.502 0-33.5-9.617-33.5-21.48 0-.379.015-.755.045-1.128-2.05.139-4.077.364-6.077.672a18.594 18.594 0 00-.103 1.956c0 14.864 17.745 26.913 39.635 26.913z" fill="#000" fill-opacity=".16"/><path d="M100.778 29.122c.072-.378.145-.752.222-1.122-2.959.054-6 1-6 1l-.42.662C59.267 34.276 32 64.48 32 101.052V110h74s-10.7-51.555-5.238-80.793l.023-.085h-.007zM158 110s11-53 5-82c2.959.054 6 1 6 1l.419.662C204.733 34.276 232 64.48 232 101.052V110h-74z" fill="#f382d4"/><path fill-rule="evenodd" clip-rule="evenodd" d="M101 28c-6 29 5 82 5 82H90L76 74l6-9-6-6 19-30s3.041-.946 6-1zm62 0c6 29-5 82-5 82h16l14-36-6-9 6-6-19-30s-3.041-.946-6-1z" fill="#000" fill-opacity=".15"/><path d="M183.423 85.77l.871-2.24 6.262-4.697a4 4 0 014.856.043L202 84l-18.577 1.77z" fill="#E6E6E6"/></g></g><g id="hair" transform="translate(7, 0)"><g><path d="M175.831 55.922l-.03.018c.757.878 1.486 1.78 2.186 2.706C184.907 67.963 189 79.502 189 92v5.5c0-15.772-6.7-29.98-17.409-39.931-11.584 3.77-49.581 14.274-77.63.42C83.513 67.92 77 81.95 77 97.5V92a55.75 55.75 0 0111.013-33.354c.71-.94 1.45-1.855 2.22-2.746a5.163 5.163 0 01-.028-.022C100.478 43.721 115.838 36 133 36c17.183 0 32.559 7.74 42.831 19.922z" fill="#000" fill-opacity=".16"/><path d="M92.537 53.286C82.913 63.342 77 76.98 77 92v6.166a11.968 11.968 0 00-6.485 3.349l.702-17.372c.56-13.884 7.234-26.125 17.363-34.173-2.207-3.843-1.455-10.333 7.802-13.093 5.065-1.51 7.572-5.087 10.234-8.884 3.503-4.995 7.272-10.371 17.487-11.92 9.866-1.494 13.227-.88 17.043-.184 3.138.572 6.584 1.201 14.205.762 9.852-.57 16.862-3.993 21.424-6.221 3.262-1.593 5.272-2.575 6.176-1.467 15.42 18.903 6.968 33.79-6.198 41.953C186.692 59.354 193 71.94 193 86v13.605a11.921 11.921 0 00-4-1.44V92c0-15.256-6.101-29.087-15.995-39.187-7.77 2.744-50.391 16.543-80.468.473zM223.61 226.052c3.059 5.601 4.049 11.122 3.499 16.377C216.051 216.878 190.613 199 161 199h-4v-18.389c17.531-8.328 30.048-25.496 31.791-45.744a11.918 11.918 0 004.209-1.472v20.714c0 20.759 11.475 39.779 22.146 57.465 2.972 4.926 5.882 9.749 8.464 14.478zM68.697 146.504l.661-16.359a11.993 11.993 0 007.85 4.722c1.744 20.248 14.261 37.416 31.792 45.744V199h-4c-11.197 0-21.798 2.556-31.25 7.116-2.986-18.284-4.297-38.673-5.053-59.612z" fill="#ab277e"/><path fill-rule="evenodd" clip-rule="evenodd" d="M90.878 52.361c33.225 19.3 83.367 0 83.367 0 14.53-7.772 25.086-23.319 8.706-43.398-2.168-2.658-10.706 6.713-27.6 7.688-16.893.974-13.271-3.301-31.248-.577s-15.991 17.304-27.721 20.803c-11.73 3.498-9.804 12.986-5.504 15.484z" fill="#fff" fill-opacity=".2"/></g></g></g></svg>